# xmcd
#
# Track frame offsets:
#	150
#	19113
#	36432
#	55545
#	77576
#	93792
#	113389
#	134107
#	154120
#	172930
#	193092
#	211849
#
# Disc length: 3055 seconds
#
# Revision: 0
# Processed by: cddbd v1.5.2PL0 Copyright (c) Steve Scherf et al.
# Submitted via: EasyCDDAExtractor 11.0.0.1
#
DISCID=900bed0c
DTITLE=ΚΟΚΟΤΑΣ ΔΗΜΗΤΡΗΣ - ΟΛΟΨΥΧΑ ΔΙΚΟΣ ΣΟΥ
DYEAR=2002
DGENRE=ΛΑΪΚΑ
TTITLE0=ΟΛΟΨΥΧΑ ΔΙΚΟΣ ΣΟΥ
TTITLE1=ΜΕ ΜΑΥΡΟΥΣ ΚΥΚΛΟΥΣ
TTITLE2=ΤΑ ΕΧΩ ΠΑΡΕΙ
TTITLE3=ΣΤΗ ΓΥΝΑΙΚΑ ΠΟΥ ΑΓΑΠΗΣΑ
TTITLE4=ΣΤΗΝ ΚΑΡΔΙΑ ΣΟΥ ΞΕΝΟΣ
TTITLE5=ΜΟΥ ΕΦΥΓΕ Η ΨΥΧΗ
TTITLE6=ΠΑΝΙΚΟΣ
TTITLE7=ΤΑ ΚΑΛΑ ΠΑΙΔΙΑ
TTITLE8=ΑΡΡΩΣΤΟΣ ΚΑΙΡΟΣ
TTITLE9=ΣΤΙΛΕΤΑ
TTITLE10=ΠΟΥ ΚΟΛΑΣ
TTITLE11=Η ΑΜΑΡΤΙΑ
EXTD=ID3G:  10\n
EXTT0=
EXTT1=
EXTT2=
EXTT3=
EXTT4=
EXTT5=
EXTT6=
EXTT7=
EXTT8=
EXTT9=
EXTT10=
EXTT11=
PLAYORDER=
